# xmcd
#
# Track frame offsets:
#	150
#	12887
#	25989
#	38952
#	52429
#	62585
#	72926
#	85935
#	98864
#	111226
#	125304
#	139208
#	154260
#	167458
#	181066
#	193830
#
# Disc length: 2766 seconds
#
# Revision: 0
# Processed by: cddbd v1.5.2PL0 Copyright (c) Steve Scherf et al.
# Submitted via: EasyCDDAExtractor 11.1.0.1
#
DISCID=de0acc10
DTITLE=Josephine Baker
DYEAR=2005
DGENRE=World
TTITLE0=After I Say I'M Sorry
TTITLE1=Breezing Along With The Breeze
TTITLE2=Bye Bye Blackbird
TTITLE3=Dinah
TTITLE4=I Love Dancing
TTITLE5=I Love My Baby
TTITLE6=I Wonder Where My Baby Is Tonight
TTITLE7=Lonesome Lovesick Blues
TTITLE8=Pardon Si Je T'Importune
TTITLE9=Partir Sur Un Bateau Tout Blanc
TTITLE10=Pretty Little Baby
TTITLE11=Sous Le Ciel D'Afrique
TTITLE12=Tes Mots D'Amour
TTITLE13=That Certain Feeling
TTITLE14=Then I'll Be Happy
TTITLE15=Toc Toc Partout
EXTD=
EXTT0=
EXTT1=
EXTT2=
EXTT3=
EXTT4=
EXTT5=
EXTT6=
EXTT7=
EXTT8=
EXTT9=
EXTT10=
EXTT11=
EXTT12=
EXTT13=
EXTT14=
EXTT15=
PLAYORDER=
